<?xml version="1.0" encoding="UTF-8" standalone="no"?>
<svg width="18px" height="18px" viewBox="0 0 18 18" version="1.1" xmlns="http://www.w3.org/2000/svg" xmlns:xlink="http://www.w3.org/1999/xlink">
    <!-- Generator: Sketch 39 (31667) - http://www.bohemiancoding.com/sketch -->
    <title>edit</title>
    <desc>Created with Sketch.</desc>
    <defs></defs>
    <g id="Page-1" stroke="none" stroke-width="1" fill="none" fill-rule="evenodd">
        <g id="edit" stroke="#999999" stroke-width="0.5" fill="#999999">
            <g id="编辑" transform="translate(2.000000, 2.000000)">
                <g id="Group" transform="translate(0.055309, 0.055309)">
                    <path d="M12.0564117,13.8885331 L2.08856759,13.8885331 C1.57750046,13.8885331 1.04541576,13.6696134 0.642775109,13.2768933 C0.240039067,12.8848727 0.00116694114,12.3802603 0.00116694114,11.8824841 L0.00116694114,1.79211177 C0.00116694114,1.2785645 0.25005502,0.802918799 0.687401678,0.470612287 C1.07109154,0.178782868 1.57382795,0.00944995339 2.08874248,0.00944995339 L7.44782494,0.00944995339 C7.71674488,0.00944995339 7.93458355,0.223520723 7.93458355,0.48509565 C7.93458355,0.746972647 7.71674488,0.961138794 7.44782494,0.961138794 L2.08856759,0.961138809 C1.56055287,0.961138809 0.978356687,1.28749936 0.978356687,1.79211177 L0.978356687,11.8824682 C0.978356687,12.4019615 1.55489307,12.9364309 2.08856759,12.9364309 L12.0564276,12.9364309 C12.574331,12.9364309 12.8801509,12.3967945 12.8801509,11.8824682 L12.8801509,6.72604157 C12.8801509,6.46406918 13.0999769,6.25198571 13.3687855,6.25198571 C13.6375942,6.25198571 13.8574201,6.4640692 13.8574201,6.72604157 L13.8574201,11.8824682 C13.8574201,12.383901 13.6980078,12.8599442 13.3985313,13.2338248 C13.057115,13.659979 12.5840448,13.8885331 12.0564117,13.8885331 L12.0564117,13.8885331 L12.0564117,13.8885331 Z M6.76052501,7.54372354 C6.60270246,7.54372354 6.44487993,7.48499518 6.32456149,7.36784052 C6.08381335,7.13324504 6.08381335,6.75302101 6.32456149,6.51842551 L12.8358105,0.176795599 C13.0765587,-0.0577998868 13.466894,-0.0577998868 13.7076421,0.176795599 C13.9483903,0.411391084 13.9483903,0.977609473 13.7076421,1.2118075 L7.38238748,7.36784052 C7.26205315,7.48499518 6.91814088,7.54372354 6.76052501,7.54372354 L6.76052501,7.54372354 L6.76052501,7.54372354 Z" id="Shape"></path>
                </g>
            </g>
        </g>
    </g>
</svg>