<?xml version="1.0" encoding="utf-8"?>
<!-- Generator: Adobe Illustrator 17.1.0, SVG Export Plug-In . SVG Version: 6.00 Build 0)  -->
<!DOCTYPE svg PUBLIC "-//W3C//DTD SVG 1.1//EN" "http://www.w3.org/Graphics/SVG/1.1/DTD/svg11.dtd">
<svg version="1.1" id="图层_1" xmlns="http://www.w3.org/2000/svg" xmlns:xlink="http://www.w3.org/1999/xlink" x="0px" y="0px"
	 viewBox="0 0 50 50" enable-background="new 0 0 50 50" xml:space="preserve">
<g>
	<path fill="#EDEDED" d="M17.8,10.9c1.6-2.7,4.9-4.6,8.7-4.6c1.2,0,2.4,0.2,3.4,0.5c1.4-1,3.1-1.6,4.9-1.8H4.5l-2,13h6.8
		C9.8,14,13.4,10.9,17.8,10.9z"/>
	<path fill="#FEFEFE" d="M39,5c-3.1,0-6,1.3-8,3.3c-1-0.4-2-0.6-3.1-0.6c-3.7,0-6.9,2.3-8.2,5.5c-0.2,0-0.5-0.1-0.7-0.1
		c-2.8,0-5.1,2.1-5.3,4.9L9.6,45h18.1l3.9-27H42l1.9-13H39z"/>
	<g>
		<polygon fill="#FCFCFC" points="45.3,22.1 47.5,7.8 45.5,7.8 43.6,20 33.2,20.1 29.6,45 31.6,45 34.9,22.1 		"/>
	</g>
</g>
</svg>
